<svg id="Layer_1" data-name="Layer 1" xmlns="http://www.w3.org/2000/svg" viewBox="0 0 122.88 34.35"><defs><style>.cls-1{fill:#1877f2;fill-rule:evenodd;}.cls-2{fill:#166bda;}.cls-3{fill:#233b6e;}.cls-4{fill:#fff;}</style></defs><title>follow-us-on-facebook</title><path class="cls-1" d="M120.33,0H2.55A2.56,2.56,0,0,0,0,2.55V31.79a2.56,2.56,0,0,0,2.55,2.56H120.33a2.56,2.56,0,0,0,2.55-2.56V2.55A2.56,2.56,0,0,0,120.33,0Z"/><polygon class="cls-2" points="30.71 33.45 30.71 0 32.38 0 32.38 33.45 30.71 33.45 30.71 33.45"/><path class="cls-3" d="M42.72,20l0,1.71h1l1.71,0,.17.21-.18,2.15L43.47,24h-.86v.2l.12,3.09h-3l.15-2.8-.15-6.74h6.37l.16.21-.19,2.15L43.75,20Zm12,7.27h-3l-.27-1.58v0l-1.45,0-1.21.06-.25,1.59H45.63l2.89-9.54h3.57l2.61,9.54ZM51,23.52l-.65-3.13h-.18l-.83,3.13H51Zm8.75-5.93a7.22,7.22,0,0,1,2.39.4l-.5,2.34-.19.12a3.58,3.58,0,0,0-.89-.33,4,4,0,0,0-.93-.12,1.5,1.5,0,0,0-1.29.52,2.91,2.91,0,0,0-.4,1.75,3.66,3.66,0,0,0,.46,2.08,1.6,1.6,0,0,0,1.42.66,6.49,6.49,0,0,0,.93-.08,4.79,4.79,0,0,0,.89-.23l.23.14-.23,2.33a6.69,6.69,0,0,1-2.05.28A4.81,4.81,0,0,1,56,26.22a5,5,0,0,1-1.2-3.62,5.07,5.07,0,0,1,1.29-3.7,4.91,4.91,0,0,1,3.65-1.31Zm10,7.34.16.21-.17,2.15H63l.15-2.8L63,17.75h6.84L70,18l-.2,2.15L67.48,20H66l0,1.35h1.46l1.53-.05.17.21-.18,2.15-1.71,0H65.87v.56l0,.82H67.3l2.45-.09Zm7.49-2.55a2.6,2.6,0,0,1,1.35.79A2.13,2.13,0,0,1,79,24.54a2.32,2.32,0,0,1-1.22,2.17,7.55,7.55,0,0,1-3.63.68c-.9,0-2,0-3.17-.1l.15-2.8L71,17.75h4.26a4.4,4.4,0,0,1,2.53.63,2.06,2.06,0,0,1,.92,1.82,2.31,2.31,0,0,1-.38,1.3,2.46,2.46,0,0,1-1.08.89Zm-1.55-1.77a.74.74,0,0,0-.36-.71A3.15,3.15,0,0,0,74,19.7h-.13l-.06,1.95,1.1,0a1.26,1.26,0,0,0,.61-.38,1.12,1.12,0,0,0,.19-.7Zm-1,4.84a1.51,1.51,0,0,0,1-.27.89.89,0,0,0,.34-.76.77.77,0,0,0-.19-.55,1.63,1.63,0,0,0-.65-.35l-1.42,0,0,.65,0,1.19,1,.06Zm9.68-7.87a4.17,4.17,0,0,1,3.22,1.23,5,5,0,0,1,1.13,3.47,5.45,5.45,0,0,1-1.24,3.83A4.56,4.56,0,0,1,84,27.47a4.14,4.14,0,0,1-3.21-1.25,5.07,5.07,0,0,1-1.13-3.53,5.33,5.33,0,0,1,1.24-3.78,4.59,4.59,0,0,1,3.53-1.33Zm-.26,2.36a1.47,1.47,0,0,0-.87.2,1.08,1.08,0,0,0-.42.7,6,6,0,0,0-.13,1.45,10.51,10.51,0,0,0,.13,1.86,1.53,1.53,0,0,0,.45.89,1.57,1.57,0,0,0,.94.25,1.6,1.6,0,0,0,.87-.2,1.11,1.11,0,0,0,.42-.71,6.71,6.71,0,0,0,.13-1.47,9.38,9.38,0,0,0-.14-1.84,1.2,1.2,0,0,0-1.38-1.13ZM94,17.58a4.16,4.16,0,0,1,3.21,1.23,4.92,4.92,0,0,1,1.14,3.47,5.45,5.45,0,0,1-1.25,3.83,4.54,4.54,0,0,1-3.53,1.36,4.11,4.11,0,0,1-3.21-1.25,5,5,0,0,1-1.14-3.53,5.34,5.34,0,0,1,1.25-3.78A4.58,4.58,0,0,1,94,17.58Zm-.27,2.36a1.51,1.51,0,0,0-.87.2,1.17,1.17,0,0,0-.42.7,6.62,6.62,0,0,0-.12,1.45,9.63,9.63,0,0,0,.13,1.86,1.2,1.2,0,0,0,1.39,1.14,1.6,1.6,0,0,0,.87-.2,1.2,1.2,0,0,0,.42-.71,6.83,6.83,0,0,0,.12-1.47,9.53,9.53,0,0,0-.13-1.84,1.2,1.2,0,0,0-1.39-1.13Zm11.15,2.33q1.35,2.11,3.09,4.4l0,.33a26.4,26.4,0,0,1-2.95.47l-.32-.18q-1.51-2.58-2.47-4.38l0,1.29.12,3.09h-3l.15-2.8-.15-6.74h3l-.11,4,1.83-2.94.5-1h3.13l-2.8,4.52Z"/><path class="cls-4" d="M42.72,19.59l0,1.71h1l1.71,0,.17.21-.18,2.15-1.9-.05h-.86v.2l.12,3.09h-3l.15-2.8-.15-6.74h6.37l.16.21-.19,2.15-2.36-.09Zm12,7.27h-3l-.27-1.58v0l-1.45,0-1.21.06-.25,1.59H45.63l2.89-9.54h3.57l2.61,9.54ZM51,23.09,50.34,20h-.18l-.83,3.13H51Zm8.75-5.93a7,7,0,0,1,2.39.4l-.5,2.34-.19.12a3.58,3.58,0,0,0-.89-.33,4,4,0,0,0-.93-.13,1.5,1.5,0,0,0-1.29.53,2.9,2.9,0,0,0-.4,1.74,3.68,3.68,0,0,0,.46,2.09,1.6,1.6,0,0,0,1.42.66,6.49,6.49,0,0,0,.93-.08,5.73,5.73,0,0,0,.89-.23l.23.14-.23,2.33a6.69,6.69,0,0,1-2.05.28A4.78,4.78,0,0,1,56,25.78a5,5,0,0,1-1.2-3.61,5.07,5.07,0,0,1,1.29-3.7,4.91,4.91,0,0,1,3.65-1.31Zm10,7.34.16.21-.17,2.15H63l.15-2.8L63,17.32h6.84l.17.21-.2,2.15-2.34-.09H66l0,1.35h1.46l1.53-.05.17.21-.18,2.15-1.71,0H65.87v.56l0,.82H67.3l2.45-.09ZM77.24,22a2.6,2.6,0,0,1,1.35.79A2.1,2.1,0,0,1,79,24.1a2.32,2.32,0,0,1-1.22,2.18,7.55,7.55,0,0,1-3.63.68c-.9,0-2,0-3.17-.1l.15-2.8L71,17.32h4.26a4.4,4.4,0,0,1,2.53.63,2.06,2.06,0,0,1,.92,1.82,2.31,2.31,0,0,1-.38,1.3,2.46,2.46,0,0,1-1.08.89Zm-1.55-1.77a.74.74,0,0,0-.36-.71,3.15,3.15,0,0,0-1.35-.2h-.13l-.06,1.95,1.1,0a1.26,1.26,0,0,0,.61-.38,1.12,1.12,0,0,0,.19-.7Zm-1,4.84a1.51,1.51,0,0,0,1-.27A.89.89,0,0,0,76,24a.77.77,0,0,0-.19-.55,1.63,1.63,0,0,0-.65-.35l-1.42,0,0,.65,0,1.19,1,.06Zm9.68-7.87a4.17,4.17,0,0,1,3.22,1.23,5,5,0,0,1,1.13,3.47,5.45,5.45,0,0,1-1.24,3.83A4.56,4.56,0,0,1,84,27a4.14,4.14,0,0,1-3.21-1.25,5.09,5.09,0,0,1-1.13-3.53,5.33,5.33,0,0,1,1.24-3.78,4.59,4.59,0,0,1,3.53-1.33Zm-.26,2.36a1.56,1.56,0,0,0-.87.19,1.14,1.14,0,0,0-.42.7,6,6,0,0,0-.13,1.46,10.51,10.51,0,0,0,.13,1.86,1.53,1.53,0,0,0,.45.89,1.57,1.57,0,0,0,.94.25,1.6,1.6,0,0,0,.87-.2,1.13,1.13,0,0,0,.42-.71,6.71,6.71,0,0,0,.13-1.47,9.38,9.38,0,0,0-.14-1.84,1.2,1.2,0,0,0-1.38-1.13ZM94,17.15a4.16,4.16,0,0,1,3.21,1.23,4.92,4.92,0,0,1,1.14,3.47,5.45,5.45,0,0,1-1.25,3.83A4.54,4.54,0,0,1,93.6,27a4.11,4.11,0,0,1-3.21-1.25,5,5,0,0,1-1.14-3.53,5.34,5.34,0,0,1,1.25-3.78A4.58,4.58,0,0,1,94,17.15Zm-.27,2.36a1.61,1.61,0,0,0-.87.19,1.23,1.23,0,0,0-.42.7,6.72,6.72,0,0,0-.12,1.46,9.63,9.63,0,0,0,.13,1.86,1.2,1.2,0,0,0,1.39,1.14,1.6,1.6,0,0,0,.87-.2,1.23,1.23,0,0,0,.42-.71,6.83,6.83,0,0,0,.12-1.47,9.53,9.53,0,0,0-.13-1.84,1.2,1.2,0,0,0-1.39-1.13Zm11.15,2.32Q106.26,24,108,26.24l0,.33A26.4,26.4,0,0,1,105,27l-.32-.18q-1.51-2.58-2.47-4.38l0,1.29.12,3.09h-3l.15-2.8-.15-6.74h3l-.11,4,1.83-2.94.5-1h3.13l-2.8,4.51Z"/><path class="cls-3" d="M.39,31.09a2.36,2.36,0,0,0,.7,1.67,2.31,2.31,0,0,0,1.66.69H120.13a2.31,2.31,0,0,0,1.66-.69,2.36,2.36,0,0,0,.7-1.67l.39-28.93V31.09a2.75,2.75,0,0,1-2.75,2.75H2.75A2.75,2.75,0,0,1,0,31.09V2.16L.39,31.09Z"/><path class="cls-4" d="M25.49,17.23a9.65,9.65,0,1,0-11.14,9.53V20H11.88V17.23h2.47V15.11A3.4,3.4,0,0,1,18,11.35a13.73,13.73,0,0,1,2.15.2V13.9H18.92a1.4,1.4,0,0,0-1.58,1.51v1.81H20L19.59,20H17.34v6.75a9.62,9.62,0,0,0,8.15-9.52Z"/><path class="cls-3" d="M41.5,9.43l0,1h.59l1,0,.1.12-.1,1.27-1.13,0h-.5v.11l.07,1.83H39.76l.09-1.65-.09-4h3.76l.09.12L43.5,9.49l-1.39-.06Zm4.12,2.46.07,1.83H43.94L44,12.07l-.09-4h1.77l-.09,3.79Zm6.19,0,.07,1.84H50l-1.58-3H48.3v1l.07,2H46.78l.09-1.65-.09-4h1.9l1.58,3h.1l0-2.94,1.6-.1-.1,3.82Zm3.68-3.82a2.57,2.57,0,0,1,1.91.68,2.64,2.64,0,0,1,.66,1.94A3.24,3.24,0,0,1,57.29,13a2.94,2.94,0,0,1-2.22.81c-.6,0-1.31,0-2.12-.08L53,12.07,53,8.1l2.54,0ZM55.4,12.5a.7.7,0,0,0,.62-.32,2.08,2.08,0,0,0,.22-1.08,4.43,4.43,0,0,0-.09-1,1,1,0,0,0-.28-.52.78.78,0,0,0-.53-.16c-.22,0-.44,0-.65,0l-.06,2.44,0,.54a5.54,5.54,0,0,0,.75.07ZM64.59,11v.89a1.79,1.79,0,0,1-.64,1.47,2.84,2.84,0,0,1-1.82.51,2.65,2.65,0,0,1-1.74-.51,1.75,1.75,0,0,1-.57-1.47l0-.89,0-2.85h1.75l-.08,3.51a.89.89,0,0,0,.17.64.74.74,0,0,0,.57.2.8.8,0,0,0,.6-.2.94.94,0,0,0,.17-.64L62.88,8.1h1.77L64.59,11ZM67.7,8a4.5,4.5,0,0,1,1.64.31l-.28,1.41-.25.11a4,4,0,0,0-.72-.36,1.66,1.66,0,0,0-.57-.13.61.61,0,0,0-.32.08.23.23,0,0,0-.11.21.32.32,0,0,0,.17.28,5.07,5.07,0,0,0,.6.31,8.46,8.46,0,0,1,.8.4,2,2,0,0,1,.55.51,1.41,1.41,0,0,1,.23.81,1.72,1.72,0,0,1-.29,1,2.09,2.09,0,0,1-.83.68,2.91,2.91,0,0,1-1.25.25,5.8,5.8,0,0,1-1.86-.33L65.46,12l.17-.1a3.84,3.84,0,0,0,.86.48,2.16,2.16,0,0,0,.76.18.54.54,0,0,0,.35-.09.24.24,0,0,0,.11-.2.36.36,0,0,0-.19-.31,3.89,3.89,0,0,0-.6-.31,8.35,8.35,0,0,1-.79-.39,1.87,1.87,0,0,1-.53-.52,1.35,1.35,0,0,1-.23-.8,1.69,1.69,0,0,1,.3-1,2,2,0,0,1,.82-.7A2.94,2.94,0,0,1,67.7,8Zm6.07,0a2.44,2.44,0,0,1,1.9.73,2.91,2.91,0,0,1,.67,2A3.2,3.2,0,0,1,75.6,13a2.66,2.66,0,0,1-2.08.8,2.42,2.42,0,0,1-1.89-.73A3,3,0,0,1,71,11a3.14,3.14,0,0,1,.73-2.23A2.7,2.7,0,0,1,73.77,8Zm-.15,1.39a.87.87,0,0,0-.51.12.67.67,0,0,0-.25.41,3.73,3.73,0,0,0-.08.86,6,6,0,0,0,.08,1.1.83.83,0,0,0,.27.52.86.86,0,0,0,.55.15.89.89,0,0,0,.51-.12.67.67,0,0,0,.25-.42,3.83,3.83,0,0,0,.07-.86,5.08,5.08,0,0,0-.08-1.09.88.88,0,0,0-.26-.52.86.86,0,0,0-.55-.15Zm8.32,2.5L82,13.72H80.12l-1.58-3h-.11v1l.07,2H76.91L77,12.07l-.09-4H78.8l1.59,3h.1l0-2.94,1.6-.1-.1,3.82Z"/><path class="cls-4" d="M41.26,9.14l0,1h.59l1,0,.1.12-.11,1.27-1.12,0h-.5v.11l.07,1.82H39.52l.09-1.65-.09-4h3.75l.1.12-.11,1.27-1.39,0Zm4.12,2.46.07,1.82H43.7l.09-1.65-.09-4h1.77l-.09,3.8Zm6.19,0,.07,1.83H49.75l-1.59-3h-.1v1l.07,2H46.54l.09-1.65-.09-4h1.89l1.59,3h.1l0-2.95,1.6-.09-.1,3.82Zm3.67-3.82a2.56,2.56,0,0,1,1.91.67,2.67,2.67,0,0,1,.67,1.94A3.2,3.2,0,0,1,57,12.69a2.9,2.9,0,0,1-2.21.81c-.6,0-1.31,0-2.12-.08l.08-1.65-.08-4,2.53,0Zm-.08,4.44a.69.69,0,0,0,.62-.33A2,2,0,0,0,56,10.81a5.15,5.15,0,0,0-.08-1,1.06,1.06,0,0,0-.28-.53.86.86,0,0,0-.53-.16,4.63,4.63,0,0,0-.65,0l-.07,2.44,0,.54c.35,0,.6.07.76.07Zm9.19-1.56v.9A1.85,1.85,0,0,1,63.7,13a2.86,2.86,0,0,1-1.82.51A2.62,2.62,0,0,1,60.14,13a1.78,1.78,0,0,1-.58-1.47l0-.9L59.54,7.8h1.74l-.08,3.51a1,1,0,0,0,.17.65.77.77,0,0,0,.58.19.78.78,0,0,0,.59-.19,1,1,0,0,0,.18-.65L62.64,7.8h1.77l-.06,2.85ZM67.46,7.7a4.65,4.65,0,0,1,1.63.3l-.28,1.42-.24.1a3.4,3.4,0,0,0-.72-.35A1.71,1.71,0,0,0,67.28,9a.58.58,0,0,0-.32.07.26.26,0,0,0-.12.21.35.35,0,0,0,.18.29,5.4,5.4,0,0,0,.6.3,7,7,0,0,1,.79.41,1.66,1.66,0,0,1,.55.51,1.33,1.33,0,0,1,.24.8,1.67,1.67,0,0,1-.29,1,2.1,2.1,0,0,1-.83.69,3.08,3.08,0,0,1-1.26.25A5.7,5.7,0,0,1,65,13.2l.25-1.51.17-.11a3.64,3.64,0,0,0,.86.48,2.11,2.11,0,0,0,.76.18.62.62,0,0,0,.35-.08.26.26,0,0,0,.11-.2.35.35,0,0,0-.19-.31,3.16,3.16,0,0,0-.6-.31,6.37,6.37,0,0,1-.79-.4,1.71,1.71,0,0,1-.53-.51,1.37,1.37,0,0,1-.23-.8,1.7,1.7,0,0,1,.3-1A2,2,0,0,1,66.25,8a2.76,2.76,0,0,1,1.21-.25Zm6.07,0a2.47,2.47,0,0,1,1.9.72,3,3,0,0,1,.66,2.05,3.22,3.22,0,0,1-.73,2.26,2.69,2.69,0,0,1-2.08.8,2.41,2.41,0,0,1-1.89-.74,3,3,0,0,1-.67-2.08,3.15,3.15,0,0,1,.73-2.23,2.71,2.71,0,0,1,2.08-.78Zm-.15,1.39a.93.93,0,0,0-.52.12.66.66,0,0,0-.25.41,4.46,4.46,0,0,0-.07.86,5.84,5.84,0,0,0,.08,1.09.85.85,0,0,0,.26.52.89.89,0,0,0,.56.15.92.92,0,0,0,.51-.12.66.66,0,0,0,.25-.41,3.87,3.87,0,0,0,.07-.87,5.79,5.79,0,0,0-.08-1.08.85.85,0,0,0-.26-.52.88.88,0,0,0-.55-.15Zm8.32,2.5.07,1.83h-1.9l-1.58-3h-.1v1l.07,2H76.67l.08-1.65-.08-4h1.89l1.58,3h.11l-.06-2.95,1.6-.09-.09,3.82Z"/></svg>